<svg width="463" height="334" viewBox="0 0 463 334" fill="none" xmlns="http://www.w3.org/2000/svg">
<path d="M148.523 84.1563H142.272V77.9043H137.835V84.1563H131.585V88.5923H137.835V94.8443H142.272V88.5923H148.523V84.1563Z" fill="#0E4281"/>
<path d="M53.9422 30.3006H49.4092V25.7676H46.1912V30.3006H41.6592V33.5186H46.1912V38.0526H49.4092V33.5186H53.9422V30.3006Z" fill="#0E4281"/>
<path d="M137.726 4.534H133.192V0H129.975V4.534H125.442V7.751H129.975V12.285H133.192V7.751H137.726V4.534Z" fill="#0E4281"/>
<path d="M417.094 87.7859H412.56V83.252H409.343V87.7859H404.81V91.003H409.343V95.537H412.56V91.003H417.094V87.7859Z" fill="#0E4281"/>
<path d="M432.995 56.9082H426.744V50.6562H422.308V56.9082H416.057V61.3443H422.308V67.5963H426.744V61.3443H432.995V56.9082Z" fill="#0E4281"/>
<path d="M37.9946 99.004H31.7436V92.752H27.3066V99.004H21.0566V103.44H27.3066V109.692H31.7436V103.44H37.9946V99.004Z" fill="#0E4281"/>
<path d="M446.542 225.251H442.008V220.717H438.79V225.251H434.258V228.468H438.79V233.002H442.008V228.468H446.542V225.251Z" fill="#0E4281"/>
<path d="M231.485 333.521C359.331 333.521 462.97 319.707 462.97 302.667C462.97 285.626 359.331 271.812 231.485 271.812C103.639 271.812 0 285.626 0 302.667C0 319.707 103.639 333.521 231.485 333.521Z" fill="#EDF0FC" fill-opacity="0.38"/>
<path d="M422.315 211.74C422.315 211.74 379.671 230.284 367.429 246.477C355.187 262.67 365.242 281.882 365.242 281.882C365.242 281.882 386.097 287.821 399.462 272.542C412.829 257.263 422.315 211.74 422.315 211.74Z" fill="#0E4281"/>
<mask id="mask0_965_153" style="mask-type:luminance" maskUnits="userSpaceOnUse" x="361" y="211" width="62" height="73">
<path d="M422.315 211.74C422.315 211.74 379.671 230.284 367.429 246.477C355.187 262.67 365.242 281.882 365.242 281.882C365.242 281.882 386.097 287.821 399.462 272.542C412.829 257.263 422.315 211.74 422.315 211.74Z" fill="white"/>
</mask>
<g mask="url(#mask0_965_153)">
<path d="M433.868 238.304C435.626 238.033 437.383 237.762 439.14 237.491C440.043 237.352 439.902 235.935 438.994 236.075C426.598 237.988 414.203 239.9 401.807 241.813C400.646 241.992 399.486 242.171 398.325 242.35C399.29 241.164 400.255 239.978 401.22 238.792C404.599 234.639 407.978 230.486 411.358 226.333C423.651 224.436 435.945 222.54 448.238 220.643C449.995 220.372 451.753 220.101 453.51 219.829C454.413 219.69 454.272 218.273 453.365 218.413C440.969 220.326 428.574 222.238 416.178 224.151C415.017 224.33 413.857 224.509 412.696 224.688C414.566 222.389 416.437 220.091 418.307 217.792C420.193 215.475 422.078 213.157 423.964 210.84C424.829 209.777 425.901 208.726 426.631 207.563C426.664 207.51 426.713 207.463 426.752 207.414C427.33 206.704 426.227 205.804 425.648 206.516C423.384 209.299 421.119 212.082 418.855 214.865C416.434 217.84 414.013 220.815 411.593 223.791C410.976 211.869 410.36 199.946 409.743 188.024C409.651 186.248 409.559 184.472 409.468 182.696C409.42 181.779 408.005 181.928 408.052 182.842C408.7 195.368 409.348 207.893 409.995 220.419C410.082 222.091 410.168 223.764 410.255 225.436C407.682 228.599 405.108 231.761 402.535 234.924C400.764 237.101 398.993 239.277 397.222 241.454C396.605 229.532 395.989 217.609 395.372 205.687C395.28 203.911 395.188 202.135 395.096 200.359C395.049 199.442 393.633 199.591 393.68 200.504C394.328 213.03 394.976 225.555 395.624 238.081C395.71 239.753 395.797 241.426 395.883 243.098C391.539 248.437 387.194 253.776 382.85 259.116C382.233 247.193 381.617 235.271 381 223.349C380.908 221.573 380.816 219.797 380.724 218.021C380.677 217.104 379.261 217.253 379.308 218.166C379.956 230.692 380.604 243.217 381.251 255.743C381.337 257.415 381.424 259.088 381.511 260.76C377.167 266.099 372.822 271.438 368.478 276.778C367.861 264.856 367.245 252.933 366.628 241.011C366.536 239.235 366.444 237.459 366.352 235.683C366.305 234.766 364.889 234.915 364.936 235.828C365.584 248.354 366.232 260.879 366.88 273.405C366.966 275.077 367.053 276.75 367.139 278.422C366.625 279.053 366.112 279.684 365.598 280.316C363.712 282.633 361.827 284.951 359.941 287.268C359.076 288.331 358.004 289.382 357.274 290.545C357.241 290.598 357.192 290.645 357.153 290.694C356.575 291.404 357.678 292.304 358.257 291.592C360.521 288.809 362.786 286.026 365.05 283.243C366.114 281.935 367.178 280.627 368.242 279.32C380.535 277.423 392.828 275.527 405.122 273.63C406.879 273.359 408.637 273.088 410.394 272.817C411.297 272.678 411.156 271.261 410.248 271.401C397.852 273.314 385.457 275.226 373.061 277.139C371.901 277.318 370.74 277.497 369.579 277.676C373.509 272.846 377.439 268.016 381.369 263.186C381.783 262.677 382.198 262.168 382.612 261.658C394.905 259.761 407.199 257.865 419.492 255.968C421.249 255.697 423.007 255.426 424.764 255.154C425.667 255.015 425.526 253.598 424.619 253.738C412.223 255.651 399.828 257.563 387.432 259.476C386.271 259.655 385.111 259.834 383.95 260.013C388.294 254.674 392.639 249.335 396.983 243.995C409.282 242.098 421.575 240.201 433.868 238.304Z" fill="#0E4281"/>
</g>
<path opacity="0.1" d="M414.369 241.275C412.934 243.315 411.416 245.339 409.793 247.333C395.674 264.686 378.063 275.574 363.461 277.468C364.375 280.216 365.242 281.88 365.242 281.88C365.242 281.88 386.097 287.819 399.462 272.54C405.342 265.821 410.469 253.251 414.369 241.275Z" fill="#0E4281"/>
<path d="M457.112 252.846C457.112 252.846 412.756 253.201 394.132 261.264C375.509 269.328 373.188 286.519 373.188 286.519C373.188 286.519 386.748 297.339 405.78 290.293C424.812 283.249 457.112 252.846 457.112 252.846Z" fill="#0E4281"/>
<mask id="mask1_965_153" style="mask-type:luminance" maskUnits="userSpaceOnUse" x="373" y="252" width="85" height="41">
<path d="M457.112 252.846C457.112 252.846 412.756 253.201 394.132 261.264C375.509 269.328 373.188 286.519 373.188 286.519C373.188 286.519 386.748 297.339 405.78 290.293C424.812 283.249 457.112 252.846 457.112 252.846Z" fill="white"/>
</mask>
<g mask="url(#mask1_965_153)">
<path d="M452.013 275.887C453.574 276.234 455.135 276.58 456.696 276.927C457.498 277.105 458.152 276.024 457.346 275.845C446.337 273.401 435.328 270.956 424.319 268.512C423.288 268.283 422.258 268.054 421.227 267.825C422.646 267.256 424.066 266.686 425.485 266.117C430.454 264.123 435.423 262.129 440.392 260.135C451.31 262.559 462.228 264.983 473.146 267.408C474.707 267.754 476.268 268.101 477.829 268.448C478.631 268.626 479.285 267.545 478.479 267.366C467.47 264.922 456.461 262.477 445.452 260.033C444.421 259.804 443.391 259.575 442.36 259.346C445.11 258.242 447.861 257.139 450.611 256.035C453.384 254.923 456.157 253.81 458.929 252.697C460.201 252.187 461.633 251.749 462.85 251.124C462.905 251.096 462.97 251.076 463.028 251.052C463.878 250.711 463.478 249.71 462.627 250.052C459.297 251.388 455.968 252.724 452.638 254.06C449.078 255.488 445.518 256.917 441.959 258.345C447.923 249.421 453.888 240.496 459.852 231.572C460.74 230.243 461.629 228.913 462.517 227.584C462.975 226.898 461.756 226.568 461.299 227.251C455.033 236.627 448.767 246.003 442.501 255.379C441.664 256.631 440.828 257.883 439.991 259.135C436.207 260.653 432.423 262.172 428.639 263.69C426.035 264.735 423.431 265.78 420.826 266.825C426.79 257.901 432.755 248.976 438.719 240.052C439.607 238.723 440.496 237.393 441.384 236.064C441.842 235.378 440.623 235.048 440.166 235.731C433.9 245.107 427.634 254.483 421.368 263.858C420.531 265.11 419.695 266.362 418.858 267.614C412.47 270.177 406.081 272.74 399.693 275.304C405.657 266.38 411.622 257.455 417.586 248.531C418.474 247.202 419.363 245.872 420.251 244.543C420.71 243.857 419.49 243.527 419.033 244.21C412.767 253.586 406.501 262.962 400.235 272.338C399.398 273.59 398.562 274.842 397.725 276.093C391.337 278.656 384.948 281.22 378.56 283.783C384.524 274.859 390.489 265.934 396.453 257.01C397.341 255.681 398.23 254.351 399.118 253.022C399.577 252.336 398.357 252.006 397.9 252.689C391.634 262.065 385.368 271.441 379.102 280.817C378.265 282.069 377.429 283.321 376.592 284.573C375.837 284.876 375.082 285.179 374.326 285.482C371.553 286.595 368.78 287.707 366.008 288.82C364.736 289.33 363.304 289.768 362.086 290.393C362.031 290.421 361.966 290.441 361.908 290.464C361.058 290.805 361.458 291.806 362.309 291.464C365.639 290.128 368.969 288.792 372.298 287.456C373.863 286.828 375.428 286.2 376.992 285.572C387.91 287.996 398.828 290.42 409.746 292.845C411.307 293.191 412.868 293.538 414.428 293.885C415.23 294.063 415.884 292.982 415.078 292.803C404.069 290.359 393.06 287.914 382.051 285.47C381.02 285.241 379.99 285.012 378.959 284.783C384.738 282.464 390.517 280.145 396.296 277.827C396.905 277.583 397.514 277.338 398.124 277.094C409.042 279.518 419.96 281.942 430.878 284.367C432.439 284.714 434 285.06 435.561 285.407C436.363 285.585 437.017 284.504 436.211 284.325C425.202 281.881 414.193 279.436 403.184 276.992C402.153 276.763 401.122 276.534 400.092 276.306C406.48 273.743 412.869 271.18 419.257 268.616C430.177 271.039 441.095 273.463 452.013 275.887Z" fill="#FFCF74"/>
</g>
<path opacity="0.1" d="M434.715 272.016C432.455 273.065 430.137 274.077 427.75 275.034C406.988 283.365 386.919 285.877 374.146 282.735C373.393 285.032 373.188 286.519 373.188 286.519C373.188 286.519 386.748 297.339 405.78 290.293C414.152 287.195 425.088 279.578 434.715 272.016Z" fill="#0E4281"/>
<path d="M12.4648 160.553C12.4648 160.553 38.6608 198.974 56.8578 207.97C75.0558 216.966 92.0468 203.494 92.0468 203.494C92.0468 203.494 93.9788 181.896 76.4688 171.626C58.9588 161.356 12.4648 160.553 12.4648 160.553Z" fill="#0E4281"/>
<mask id="mask2_965_153" style="mask-type:luminance" maskUnits="userSpaceOnUse" x="12" y="160" width="81" height="52">
<path d="M12.4648 160.553C12.4648 160.553 38.6608 198.974 56.8578 207.97C75.0558 216.966 92.0468 203.494 92.0468 203.494C92.0468 203.494 93.9788 181.896 76.4688 171.626C58.9588 161.356 12.4648 160.553 12.4648 160.553Z" fill="white"/>
</mask>
<g mask="url(#mask2_965_153)">
<path d="M36.3977 144.233C35.8027 142.557 35.2077 140.881 34.6117 139.206C34.3057 138.345 32.9407 138.749 33.2487 139.614C37.4467 151.433 41.6447 163.252 45.8427 175.071C46.2357 176.178 46.6287 177.284 47.0217 178.391C45.6757 177.665 44.3297 176.939 42.9847 176.213C38.2727 173.671 33.5607 171.128 28.8487 168.585C24.6857 156.864 20.5217 145.143 16.3587 133.421C15.7637 131.745 15.1687 130.07 14.5727 128.394C14.2667 127.533 12.9017 127.937 13.2097 128.802C17.4077 140.621 21.6057 152.44 25.8037 164.259C26.1967 165.366 26.5897 166.472 26.9827 167.579C24.3747 166.172 21.7667 164.765 19.1587 163.357C16.5297 161.938 13.8997 160.52 11.2707 159.101C10.0647 158.45 8.83165 157.594 7.55165 157.095C7.49365 157.072 7.43766 157.034 7.38266 157.004C6.57666 156.569 5.89966 157.821 6.70666 158.257C9.86366 159.961 13.0217 161.664 16.1787 163.368C19.5547 165.189 22.9297 167.011 26.3057 168.832C14.7087 171.669 3.11265 174.505 -8.48335 177.342C-10.2103 177.764 -11.9383 178.187 -13.6653 178.609C-14.5573 178.827 -14.1453 180.19 -13.2573 179.973C-1.07434 176.993 11.1087 174.013 23.2927 171.033C24.9197 170.635 26.5457 170.237 28.1727 169.839C31.7607 171.775 35.3497 173.711 38.9377 175.647C41.4077 176.979 43.8767 178.312 46.3467 179.644C34.7497 182.48 23.1537 185.317 11.5577 188.153C9.83066 188.576 8.10266 188.998 6.37566 189.421C5.48366 189.639 5.89566 191.002 6.78366 190.785C18.9667 187.805 31.1497 184.825 43.3337 181.845C44.9607 181.447 46.5867 181.049 48.2137 180.651C54.2717 183.92 60.3297 187.188 66.3867 190.457C54.7907 193.293 43.1937 196.13 31.5977 198.966C29.8707 199.388 28.1427 199.811 26.4157 200.233C25.5237 200.451 25.9357 201.814 26.8237 201.596C39.0067 198.616 51.1897 195.636 63.3737 192.656C65.0007 192.258 66.6267 191.86 68.2537 191.462C74.3117 194.731 80.3697 197.999 86.4267 201.268C74.8307 204.105 63.2337 206.941 51.6377 209.777C49.9107 210.2 48.1827 210.622 46.4557 211.045C45.5637 211.263 45.9757 212.626 46.8637 212.408C59.0467 209.428 71.2297 206.448 83.4137 203.468C85.0407 203.07 86.6667 202.672 88.2937 202.274C89.0097 202.66 89.7257 203.047 90.4417 203.433C93.0707 204.852 95.7007 206.27 98.3297 207.689C99.5357 208.34 100.769 209.196 102.049 209.696C102.107 209.719 102.163 209.757 102.218 209.787C103.024 210.222 103.701 208.97 102.894 208.535C99.7367 206.831 96.5787 205.128 93.4217 203.424C91.9377 202.623 90.4537 201.823 88.9707 201.022C84.8077 189.301 80.6437 177.579 76.4807 165.858C75.8857 164.182 75.2907 162.506 74.6947 160.831C74.3887 159.97 73.0237 160.374 73.3317 161.239C77.5297 173.058 81.7277 184.877 85.9257 196.696C86.3187 197.803 86.7117 198.909 87.1047 200.016C81.6247 197.059 76.1447 194.102 70.6647 191.145C70.0867 190.833 69.5097 190.521 68.9317 190.21C64.7687 178.489 60.6047 166.768 56.4417 155.046C55.8467 153.37 55.2517 151.694 54.6557 150.019C54.3497 149.158 52.9847 149.562 53.2927 150.427C57.4907 162.246 61.6887 174.065 65.8867 185.884C66.2797 186.991 66.6727 188.097 67.0657 189.204C61.0077 185.935 54.9497 182.667 48.8927 179.398C44.7237 167.676 40.5607 155.954 36.3977 144.233Z" fill="#0E4281"/>
</g>
<path opacity="0.1" d="M42.9668 162.83C45.2388 163.858 47.5118 164.971 49.7748 166.192C69.4628 176.815 83.4538 192.078 88.0468 206.067C90.5748 204.654 92.0478 203.492 92.0478 203.492C92.0478 203.492 93.9798 181.894 76.4698 171.624C68.7678 167.106 55.4598 164.422 42.9668 162.83Z" fill="#0E4281"/>
<path d="M46.334 118.678C46.334 118.678 54.982 162.185 66.388 178.97C77.794 195.756 95.116 194.819 95.116 194.819C95.116 194.819 103.207 179.474 92.725 162.096C82.243 144.718 46.334 118.678 46.334 118.678Z" fill="#0E4281"/>
<mask id="mask3_965_153" style="mask-type:luminance" maskUnits="userSpaceOnUse" x="46" y="118" width="53" height="77">
<path d="M46.334 118.678C46.334 118.678 54.982 162.185 66.388 178.97C77.794 195.756 95.116 194.819 95.116 194.819C95.116 194.819 103.207 179.474 92.725 162.096C82.243 144.718 46.334 118.678 46.334 118.678Z" fill="white"/>
</mask>
<g mask="url(#mask3_965_153)">
<path d="M69.9234 119.376C69.9714 117.778 70.0204 116.18 70.0684 114.582C70.0934 113.761 68.9084 113.321 68.8834 114.146C68.5424 125.418 68.2004 136.69 67.8594 147.962C67.8274 149.017 67.7954 150.073 67.7634 151.128C66.9384 149.84 66.1134 148.553 65.2884 147.265C62.4004 142.757 59.5114 138.248 56.6234 133.74C56.9624 122.561 57.3004 111.383 57.6394 100.204C57.6874 98.6063 57.7364 97.0083 57.7844 95.4103C57.8094 94.5893 56.6244 94.1493 56.5994 94.9743C56.2584 106.246 55.9164 117.518 55.5754 128.789C55.5434 129.844 55.5114 130.9 55.4794 131.955C53.8804 129.46 52.2824 126.965 50.6834 124.469C49.0714 121.953 47.4604 119.438 45.8484 116.922C45.1094 115.768 44.4114 114.443 43.5694 113.364C43.5314 113.315 43.4994 113.255 43.4664 113.203C42.9724 112.432 42.0644 113.012 42.5584 113.784C44.4934 116.805 46.4294 119.826 48.3644 122.847C50.4334 126.077 52.5024 129.306 54.5714 132.536C44.6884 128.347 34.8064 124.157 24.9234 119.968C23.4514 119.344 21.9794 118.72 20.5074 118.096C19.7474 117.774 19.6514 119.034 20.4084 119.354C30.7914 123.755 41.1734 128.156 51.5564 132.558C52.9424 133.146 54.3294 133.733 55.7154 134.321C57.9144 137.754 60.1144 141.187 62.3144 144.62C63.8284 146.983 65.3424 149.345 66.8554 151.708C56.9724 147.519 47.0904 143.329 37.2074 139.14C35.7354 138.516 34.2634 137.892 32.7914 137.268C32.0314 136.946 31.9354 138.206 32.6924 138.526C43.0754 142.927 53.4574 147.328 63.8404 151.73C65.2264 152.318 66.6134 152.905 67.9994 153.493C71.7124 159.289 75.4264 165.085 79.1394 170.881C69.2564 166.692 59.3744 162.503 49.4914 158.313C48.0194 157.689 46.5474 157.065 45.0754 156.441C44.3154 156.119 44.2194 157.379 44.9764 157.7C55.3594 162.101 65.7414 166.502 76.1244 170.903C77.5104 171.491 78.8974 172.078 80.2834 172.666C83.9964 178.462 87.7104 184.258 91.4234 190.054C81.5404 185.865 71.6584 181.676 61.7754 177.486C60.3034 176.862 58.8314 176.238 57.3594 175.614C56.5994 175.292 56.5034 176.552 57.2604 176.872C67.6434 181.273 78.0254 185.674 88.4084 190.076C89.7944 190.664 91.1814 191.251 92.5674 191.839C93.0064 192.524 93.4454 193.209 93.8844 193.895C95.4964 196.411 97.1074 198.926 98.7194 201.442C99.4584 202.596 100.156 203.921 100.999 205C101.037 205.049 101.069 205.109 101.102 205.161C101.596 205.932 102.504 205.352 102.01 204.58C100.075 201.559 98.1394 198.538 96.2044 195.517C95.2944 194.097 94.3854 192.678 93.4754 191.258C93.8144 180.079 94.1524 168.901 94.4914 157.722C94.5394 156.124 94.5884 154.526 94.6364 152.928C94.6614 152.107 93.4764 151.667 93.4514 152.492C93.1104 163.764 92.7684 175.036 92.4274 186.307C92.3954 187.362 92.3634 188.418 92.3314 189.473C88.9724 184.23 85.6134 178.987 82.2544 173.744C81.9004 173.191 81.5464 172.639 81.1924 172.086C81.5314 160.907 81.8694 149.729 82.2084 138.55C82.2564 136.952 82.3054 135.354 82.3534 133.756C82.3784 132.935 81.1934 132.495 81.1684 133.32C80.8274 144.592 80.4854 155.864 80.1444 167.135C80.1124 168.19 80.0804 169.246 80.0484 170.301C76.3354 164.505 72.6214 158.709 68.9084 152.913C69.2464 141.734 69.5844 130.555 69.9234 119.376Z" fill="#FFCF74"/>
</g>
<path opacity="0.1" d="M69.3574 137.092C70.8104 139.116 72.2384 141.204 73.6254 143.369C85.6934 162.206 91.9164 181.45 91.2204 194.586C93.6174 194.897 95.1174 194.819 95.1174 194.819C95.1174 194.819 103.208 179.474 92.7264 162.096C88.1154 154.452 78.5864 145.134 69.3574 137.092Z" fill="#0E4281"/>
<path d="M381.399 296.279C381.399 299.31 378.919 301.789 375.889 301.789H87.0813C84.0503 301.789 81.5713 299.309 81.5713 296.279V109.478C81.5713 106.447 84.0513 103.967 87.0813 103.967H375.889C378.92 103.967 381.399 106.447 381.399 109.478V296.279Z" fill="#0E4281"/>
<path d="M367.012 119.391H95.958V291.676H367.012V119.391Z" fill="#D0DBF7"/>
<path d="M62.0908 283.674V299.59C62.0908 303.015 64.8928 305.817 68.3178 305.817H394.654C398.079 305.817 400.881 303.015 400.881 299.59V283.674H62.0908Z" fill="#0E4281"/>
<path d="M194.599 282.971V294.324C194.599 295.338 195.429 296.168 196.443 296.168H266.527C267.541 296.168 268.371 295.338 268.371 294.324V282.971H194.599Z" fill="#92A6F4"/>
<path d="M346.584 134.066H111.431V270.024H346.584V134.066Z" fill="white"/>
<path d="M346.584 134.066H111.431V147.167H346.584V134.066Z" fill="#0E4281"/>
<path d="M122.86 140.92C122.86 142.576 121.518 143.918 119.862 143.918C118.206 143.918 116.864 142.576 116.864 140.92C116.864 139.264 118.206 137.922 119.862 137.922C121.518 137.922 122.86 139.264 122.86 140.92Z" fill="#0E4281"/>
<path d="M132.955 140.92C132.955 142.576 131.613 143.918 129.957 143.918C128.301 143.918 126.959 142.576 126.959 140.92C126.959 139.264 128.301 137.922 129.957 137.922C131.613 137.922 132.955 139.264 132.955 140.92Z" fill="#0E4281"/>
<path d="M143.051 140.92C143.051 142.576 141.709 143.918 140.053 143.918C138.397 143.918 137.055 142.576 137.055 140.92C137.055 139.264 138.397 137.922 140.053 137.922C141.709 137.922 143.051 139.264 143.051 140.92Z" fill="#0E4281"/>
<path d="M225.397 215.964C225.397 212.197 226.893 209.26 229.884 207.155L231.324 206.159C232.691 205.273 233.642 204.544 234.177 203.971C234.712 203.399 234.981 202.688 234.981 201.838C234.981 199.696 233.188 198.625 229.606 198.625C227.944 198.625 226.227 198.847 224.454 199.29C222.682 199.732 221.001 200.362 219.413 201.173V192.642C222.81 191.091 226.615 190.316 230.825 190.316C235.367 190.316 238.969 191.267 241.627 193.169C244.287 195.071 245.616 197.702 245.616 201.062C245.616 202.946 245.192 204.469 244.343 205.632C243.493 206.795 242.052 208.097 240.022 209.537C238.655 210.535 237.658 211.301 237.03 211.837C236.402 212.373 235.931 212.972 235.618 213.637C235.304 214.302 235.147 215.115 235.147 216.074V217.127H225.397V215.964ZM226.533 229.231C225.553 228.253 225.064 227.043 225.064 225.602C225.064 224.125 225.553 222.906 226.533 221.946C227.51 220.986 228.74 220.506 230.216 220.506C231.657 220.506 232.885 220.995 233.9 221.974C234.915 222.954 235.423 224.162 235.423 225.603C235.423 227.043 234.914 228.253 233.9 229.232C232.884 230.21 231.656 230.7 230.216 230.7C228.74 230.699 227.511 230.21 226.533 229.231Z" fill="#0E4281"/>
<path d="M231.485 256.27C205.461 256.27 184.289 235.098 184.289 209.074C184.289 183.05 205.461 161.879 231.485 161.879C257.509 161.879 278.68 183.051 278.68 209.074C278.68 235.098 257.509 256.27 231.485 256.27ZM231.485 164.78C207.061 164.78 187.191 184.65 187.191 209.073C187.191 233.497 207.061 253.367 231.485 253.367C255.908 253.367 275.778 233.497 275.778 209.073C275.778 184.65 255.908 164.78 231.485 164.78Z" fill="#0E4281"/>
<path d="M443.167 196.466C443.167 199.3 440.848 201.62 438.013 201.62H297.07C294.235 201.62 291.916 199.301 291.916 196.466V168.578C291.916 165.744 294.235 163.424 297.07 163.424H438.013C440.847 163.424 443.167 165.743 443.167 168.578V196.466Z" fill="#0E4281"/>
<path d="M338.249 168.529H336.188V196.515H338.249V168.529Z" fill="#D0DBF7"/>
<path d="M325.647 188.075L318.612 184.508C319.109 183.081 319.133 181.541 318.656 180.08C318.079 178.317 316.85 176.883 315.195 176.044C313.54 175.205 311.658 175.06 309.894 175.637C308.131 176.214 306.697 177.443 305.858 179.097C305.018 180.752 304.874 182.635 305.451 184.398C306.028 186.162 307.257 187.595 308.912 188.434C310.567 189.273 312.449 189.418 314.213 188.841C315.673 188.363 316.902 187.433 317.759 186.19L324.794 189.757L325.647 188.075ZM309.765 186.751C308.56 186.14 307.664 185.096 307.244 183.811C306.824 182.527 306.929 181.155 307.54 179.95C308.151 178.745 309.195 177.85 310.48 177.429C311.765 177.009 313.136 177.114 314.341 177.725C315.546 178.336 316.442 179.38 316.862 180.665C317.282 181.95 317.177 183.321 316.565 184.527C315.954 185.732 314.91 186.627 313.625 187.048C312.342 187.468 310.971 187.363 309.765 186.751Z" fill="white"/>
<path d="M309.046 180.29L310.055 180.802C310.568 179.791 311.808 179.385 312.819 179.898L313.331 178.889C311.763 178.094 309.841 178.722 309.046 180.29Z" fill="white"/>
<path d="M163.751 205.223H24.957V293.517H163.751V205.223Z" fill="#F5F9FF"/>
<path d="M163.751 205.223H24.957V216.235H163.751V205.223Z" fill="#0E4281"/>
<path d="M32.0454 213.503C33.4371 213.503 34.5654 212.375 34.5654 210.983C34.5654 209.591 33.4371 208.463 32.0454 208.463C30.6536 208.463 29.5254 209.591 29.5254 210.983C29.5254 212.375 30.6536 213.503 32.0454 213.503Z" fill="#0E4281"/>
<path d="M43.0517 210.983C43.0517 212.375 41.9237 213.503 40.5317 213.503C39.1397 213.503 38.0117 212.375 38.0117 210.983C38.0117 209.591 39.1397 208.463 40.5317 208.463C41.9237 208.463 43.0517 209.591 43.0517 210.983Z" fill="#0E4281"/>
<path d="M49.0171 213.503C50.4088 213.503 51.5371 212.375 51.5371 210.983C51.5371 209.591 50.4088 208.463 49.0171 208.463C47.6253 208.463 46.4971 209.591 46.4971 210.983C46.4971 212.375 47.6253 213.503 49.0171 213.503Z" fill="#0E4281"/>
<path d="M45.4043 253.667C47.4443 251.205 49.4833 249.28 51.5233 247.523C53.5623 245.739 55.6023 244.247 57.6423 242.83C61.7213 240.071 65.8003 237.924 69.8793 236.281C78.0373 232.973 86.1953 231.543 94.3543 231.506C102.512 231.498 110.671 232.921 118.829 236.218C122.908 237.857 126.987 240.012 131.066 242.775C133.105 244.2 135.145 245.697 137.185 247.489C139.224 249.253 141.264 251.189 143.304 253.667C141.264 256.145 139.225 258.081 137.185 259.845C135.145 261.638 133.106 263.134 131.066 264.559C126.987 267.322 122.908 269.477 118.829 271.116C110.671 274.413 102.512 275.836 94.3543 275.828C86.1963 275.791 78.0383 274.361 69.8793 271.053C65.8003 269.41 61.7213 267.263 57.6423 264.504C55.6033 263.088 53.5633 261.595 51.5233 259.811C49.4833 258.054 47.4443 256.13 45.4043 253.667Z" fill="#FFCF74"/>
<path d="M106.261 254.907C99.7987 254.907 94.5597 249.668 94.5597 243.206C94.5597 240.607 95.4177 238.215 96.8507 236.273C96.0327 236.156 95.2037 236.076 94.3537 236.076C84.6387 236.076 76.7627 243.952 76.7627 253.667C76.7627 263.382 84.6387 271.258 94.3537 271.258C104.069 271.258 111.945 263.382 111.945 253.667C111.945 253.59 111.935 253.515 111.933 253.437C110.253 254.371 108.321 254.907 106.261 254.907Z" fill="#0E4281"/>
<path d="M45.4043 253.667C48.2553 250.035 51.6683 246.852 55.2883 243.941C58.9463 241.073 62.8643 238.489 67.0503 236.367C71.2123 234.195 75.6623 232.552 80.2383 231.35C84.8273 230.188 89.5713 229.605 94.3233 229.547C95.5113 229.583 96.7023 229.55 97.8863 229.656L101.435 229.983C103.776 230.367 106.139 230.67 108.418 231.334C110.733 231.86 112.94 232.727 115.176 233.476L118.425 234.869L120.032 235.596L121.584 236.431C129.904 240.795 137.223 246.751 143.303 253.666C136.021 248.032 128.368 243.026 120.16 239.4L118.628 238.711L117.053 238.133L113.921 236.955C111.779 236.345 109.674 235.613 107.487 235.221C105.334 234.68 103.136 234.399 100.949 234.079L97.6443 233.823C96.5433 233.735 95.4353 233.795 94.3323 233.765C85.4913 233.739 76.6873 235.816 68.4453 239.336C64.3283 241.115 60.3223 243.218 56.4783 245.624C52.6123 248.006 48.9163 250.691 45.4043 253.667Z" fill="#0E4281"/>
<path d="M120.828 223.55L63.7783 280.6L65.8141 282.635L122.864 225.586L120.828 223.55Z" fill="#0E4281"/>
<path d="M313.251 15.4668H174.457V103.761H313.251V15.4668Z" fill="#F5F9FF"/>
<path d="M313.251 15.4668H174.457V26.4788H313.251V15.4668Z" fill="#0E4281"/>
<path d="M181.545 23.747C182.937 23.747 184.065 22.6188 184.065 21.227C184.065 19.8353 182.937 18.707 181.545 18.707C180.154 18.707 179.025 19.8353 179.025 21.227C179.025 22.6188 180.154 23.747 181.545 23.747Z" fill="#C1D1F4"/>
<path d="M192.552 21.227C192.552 22.619 191.424 23.747 190.032 23.747C188.64 23.747 187.512 22.619 187.512 21.227C187.512 19.835 188.64 18.707 190.032 18.707C191.424 18.707 192.552 19.835 192.552 21.227Z" fill="#C1D1F4"/>
<path d="M198.517 23.747C199.909 23.747 201.037 22.6188 201.037 21.227C201.037 19.8353 199.909 18.707 198.517 18.707C197.125 18.707 195.997 19.8353 195.997 21.227C195.997 22.6188 197.125 23.747 198.517 23.747Z" fill="#C1D1F4"/>
<path d="M300.882 36.082H162.088V124.376H300.882V36.082Z" fill="#F5F9FF"/>
<path d="M300.882 36.082H162.088V47.094H300.882V36.082Z" fill="#0E4281"/>
<path d="M169.177 44.3623C170.569 44.3623 171.697 43.234 171.697 41.8423C171.697 40.4505 170.569 39.3223 169.177 39.3223C167.785 39.3223 166.657 40.4505 166.657 41.8423C166.657 43.234 167.785 44.3623 169.177 44.3623Z" fill="#0E4281"/>
<path d="M180.184 41.8423C180.184 43.2343 179.056 44.3623 177.664 44.3623C176.272 44.3623 175.144 43.2343 175.144 41.8423C175.144 40.4503 176.272 39.3223 177.664 39.3223C179.055 39.3223 180.184 40.4503 180.184 41.8423Z" fill="#0E4281"/>
<path d="M186.148 44.3623C187.54 44.3623 188.668 43.234 188.668 41.8423C188.668 40.4505 187.54 39.3223 186.148 39.3223C184.756 39.3223 183.628 40.4505 183.628 41.8423C183.628 43.234 184.756 44.3623 186.148 44.3623Z" fill="#0E4281"/>
<path d="M256.603 110.731H206.625C203.807 110.731 201.581 109.605 200.518 107.642C199.455 105.679 199.728 103.199 201.269 100.84V100.839L225.612 63.5442C227.102 61.2612 229.29 59.9512 231.614 59.9512C233.938 59.9512 236.126 61.2612 237.616 63.5432L261.96 100.84C263.5 103.2 263.773 105.679 262.71 107.642C261.646 109.604 259.421 110.731 256.603 110.731ZM205.694 103.727C205.148 104.564 205.141 105.049 205.169 105.133C205.215 105.186 205.625 105.445 206.624 105.445H256.602C257.601 105.445 258.011 105.185 258.066 105.116C258.085 105.048 258.078 104.563 257.532 103.726L233.189 66.4302C232.7 65.6812 232.111 65.2342 231.613 65.2342C231.115 65.2342 230.526 65.6812 230.036 66.4312L205.694 103.727Z" fill="#0E4281"/>
<path d="M230.082 100.619C229.679 100.215 229.477 99.7167 229.477 99.1237C229.477 98.5307 229.679 98.0317 230.082 97.6287C230.486 97.2247 230.984 97.0227 231.577 97.0227C232.171 97.0227 232.675 97.2247 233.091 97.6287C233.505 98.0327 233.714 98.5307 233.714 99.1237C233.714 99.7177 233.505 100.216 233.091 100.619C232.675 101.022 232.171 101.224 231.577 101.224C230.984 101.224 230.486 101.022 230.082 100.619ZM228.836 75.8027H234.39L233.358 93.5687H229.868L228.836 75.8027Z" fill="#0E4281"/>
<path d="M383.83 31.7492C378.141 26.2562 370.494 23.2082 362.599 23.1582C354.43 23.2102 346.494 26.4802 340.773 32.3402C334.978 38.2752 331.762 46.5092 332.088 54.8082C332.297 60.1332 333.903 65.3262 336.715 69.8432C335.688 73.8432 334.662 77.8432 333.635 81.8432C333.142 83.7652 334.887 85.5002 336.805 85.0132C341.289 83.8742 345.773 82.7362 350.257 81.5972C357.293 84.6142 365.296 85.1172 372.574 82.5542C379.074 80.2652 384.654 75.8672 388.376 70.0622C396.088 58.0322 394.085 41.6502 383.83 31.7492ZM387.233 59.8252C385.352 67.3302 380.107 73.5462 373.112 76.8112C369.555 78.4722 365.579 79.1812 361.671 79.0562C359.114 78.9742 356.609 78.4812 354.191 77.6502C352.595 77.1012 351.16 76.0892 349.438 76.4862C346.18 77.2362 342.941 78.0892 339.702 78.9372C340.055 77.5622 340.408 76.1882 340.76 74.8132C341.13 73.3702 341.532 71.9302 341.872 70.4792C342.064 69.6622 342.129 68.9152 341.709 68.1172C340.925 66.6282 339.94 65.2902 339.264 63.7312C334.754 53.3192 337.971 41.0922 346.637 33.9402C351.102 30.2552 356.843 28.3472 362.598 28.3112C370.394 28.3602 377.866 31.9362 382.666 38.1222C387.394 44.2152 389.107 52.3472 387.233 59.8252Z" fill="#0E4281"/>
<path d="M362.564 36.6094C353.145 36.6094 345.483 44.2724 345.483 53.6904C345.483 63.1094 353.145 70.7724 362.564 70.7724C371.983 70.7724 379.645 63.1094 379.645 53.6904C379.645 44.2724 371.983 36.6094 362.564 36.6094ZM350.515 53.6914C350.515 47.0484 355.92 41.6424 362.564 41.6424C364.919 41.6424 367.162 42.3104 369.112 43.5844L352.457 60.2394C351.183 58.2904 350.515 56.0474 350.515 53.6914ZM362.564 65.7404C360.208 65.7404 357.965 65.0724 356.015 63.7984L372.671 47.1424C373.944 49.0924 374.612 51.3344 374.612 53.6914C374.613 60.3344 369.208 65.7404 362.564 65.7404Z" fill="#0E4281"/>
<path d="M439.766 130.524C438.741 129.279 437.745 128.371 436.994 127.722C436.028 126.872 435.06 126.172 434.237 125.597C432.463 124.396 430.613 123.405 428.739 122.652C425.261 121.246 421.568 120.533 417.733 120.533C413.852 120.551 410.256 121.252 406.74 122.678C404.854 123.438 403 124.43 401.229 125.629C400.422 126.189 399.466 126.877 398.492 127.728C397.734 128.381 396.734 129.288 395.713 130.521L395.074 131.293L395.713 132.065C396.734 133.298 397.732 134.202 398.485 134.851C399.467 135.71 400.427 136.4 401.24 136.965C403.003 138.158 404.852 139.147 406.737 139.906C410.255 141.332 413.853 142.034 417.738 142.052H417.768C421.569 142.052 425.26 141.339 428.737 139.934C430.615 139.18 432.469 138.186 434.253 136.977C435.067 136.408 436.029 135.712 436.988 134.869C437.743 134.215 438.742 133.306 439.767 132.061L440.4 131.291L439.766 130.524ZM435.395 133.08C434.517 133.848 433.628 134.487 432.879 135.009C431.248 136.108 429.549 137.014 427.831 137.701C424.597 139.001 421.306 139.634 417.744 139.634C414.176 139.618 410.873 138.977 407.644 137.674C405.917 136.982 404.222 136.079 402.608 134.994C401.857 134.475 400.969 133.84 400.071 133.059C399.575 132.634 398.932 132.063 398.255 131.337C398.935 130.608 399.58 130.036 400.078 129.609C400.968 128.835 401.852 128.203 402.596 127.688C404.217 126.597 405.916 125.692 407.646 124.998C410.874 123.696 414.175 123.055 417.768 123.039C421.305 123.039 424.597 123.671 427.833 124.972C429.55 125.658 431.244 126.561 432.864 127.653C433.622 128.18 434.516 128.823 435.402 129.598C435.898 130.024 436.541 130.599 437.225 131.336C436.542 132.073 435.895 132.649 435.395 133.08Z" fill="#0E4281"/>
<path d="M424.5 129.806L423.279 130.484C422.818 130.74 422.295 130.876 421.766 130.876C420.045 130.876 418.644 129.475 418.644 127.754C418.644 127.086 418.856 126.447 419.256 125.905L420.088 124.778L418.701 124.581C418.341 124.53 418.035 124.506 417.738 124.506C413.996 124.506 410.951 127.551 410.951 131.294C410.951 135.037 413.996 138.081 417.738 138.081C421.481 138.081 424.525 135.036 424.525 131.294C424.525 131.26 424.523 131.226 424.521 131.203L424.5 129.806Z" fill="#0E4281"/>
<path d="M430.732 117.01L403.447 144.295L404.733 145.58L432.018 118.296L430.732 117.01Z" fill="#0E4281"/>
<path d="M86.146 78.6217C85.2 78.6217 84.331 78.7998 83.639 79.0948C83.364 77.4158 82.707 75.8698 81.754 74.5448C82.454 74.2648 83.194 73.7848 83.865 73.1138C85.46 71.5198 86.045 69.5198 85.174 68.6488C84.302 67.7768 82.303 68.3628 80.709 69.9578C80.038 70.6288 79.559 71.3688 79.278 72.0688C77.953 71.1158 76.407 70.4588 74.728 70.1838C75.023 69.4918 75.201 68.6228 75.201 67.6768C75.201 65.4218 74.202 63.5938 72.969 63.5938C71.736 63.5938 70.737 65.4218 70.737 67.6768C70.737 68.6228 70.915 69.4918 71.21 70.1838C69.531 70.4588 67.985 71.1158 66.66 72.0688C66.38 71.3688 65.9 70.6288 65.229 69.9578C63.635 68.3638 61.635 67.7778 60.764 68.6488C59.892 69.5208 60.478 71.5198 62.073 73.1138C62.744 73.7848 63.484 74.2638 64.184 74.5448C63.231 75.8698 62.574 77.4158 62.299 79.0948C61.607 78.7998 60.738 78.6217 59.792 78.6217C57.537 78.6217 55.709 79.6208 55.709 80.8538C55.709 82.0868 57.537 83.0858 59.792 83.0858C60.738 83.0858 61.607 82.9078 62.299 82.6128C62.574 84.2918 63.231 85.8378 64.184 87.1628C63.484 87.4428 62.744 87.9227 62.073 88.5938C60.478 90.1877 59.893 92.1878 60.764 93.0598C61.636 93.9318 63.635 93.3458 65.229 91.7508C65.9 91.0798 66.379 90.3398 66.66 89.6398C67.985 90.5928 69.531 91.2497 71.21 91.5247C70.915 92.2167 70.737 93.0858 70.737 94.0318C70.737 96.2868 71.736 98.1148 72.969 98.1148C74.202 98.1148 75.201 96.2868 75.201 94.0318C75.201 93.0858 75.023 92.2167 74.728 91.5247C76.407 91.2497 77.953 90.5928 79.278 89.6398C79.558 90.3398 80.038 91.0798 80.709 91.7508C82.303 93.3458 84.303 93.9308 85.174 93.0598C86.046 92.1878 85.46 90.1888 83.865 88.5938C83.194 87.9227 82.454 87.4438 81.754 87.1628C82.707 85.8378 83.364 84.2918 83.639 82.6128C84.331 82.9078 85.2 83.0858 86.146 83.0858C88.401 83.0858 90.229 82.0868 90.229 80.8538C90.229 79.6208 88.401 78.6217 86.146 78.6217ZM72.968 87.9708C69.038 87.9708 65.851 84.7848 65.851 80.8538C65.851 76.9238 69.037 73.7368 72.968 73.7368C76.899 73.7368 80.085 76.9228 80.085 80.8538C80.085 84.7848 76.898 87.9708 72.968 87.9708Z" fill="#0E4281"/>
<path d="M121.479 54.5929C120.204 54.0799 118.938 53.8479 117.845 53.8709C118.384 51.4609 118.338 49.0209 117.772 46.7199C118.867 46.7219 120.124 46.4769 121.391 45.9369C124.403 44.6539 126.276 42.2779 125.574 40.6309C124.872 38.9839 121.862 38.6899 118.85 39.9729C117.582 40.5129 116.536 41.2499 115.779 42.0409C114.511 40.0389 112.784 38.3159 110.672 37.0359C111.445 36.2639 112.155 35.1899 112.668 33.9149C113.89 30.8779 113.535 27.8739 111.874 27.2049C110.213 26.5369 107.876 28.4569 106.654 31.4949C106.141 32.7699 105.91 34.0359 105.932 35.1289C103.522 34.5889 101.082 34.6359 98.7815 35.2019C98.7835 34.1069 98.5385 32.8499 97.9985 31.5829C96.7145 28.5709 94.3395 26.6979 92.6925 27.3999C91.0455 28.1019 90.7515 31.1119 92.0345 34.1239C92.5745 35.3919 93.3115 36.4379 94.1025 37.1949C92.1005 38.4629 90.3775 40.1899 89.0975 42.3019C88.3255 41.5289 87.2515 40.8189 85.9765 40.3059C82.9395 39.0839 79.9345 39.4389 79.2665 41.0999C78.5985 42.7609 80.5185 45.0979 83.5565 46.3199C84.8315 46.8329 86.0975 47.0649 87.1905 47.0419C86.6515 49.4519 86.6975 51.8919 87.2635 54.1929C86.1685 54.1909 84.9115 54.4359 83.6445 54.9759C80.6325 56.2589 78.7595 58.6349 79.4615 60.2819C80.1635 61.9289 83.1734 62.2229 86.1865 60.9399C87.4545 60.3999 88.5005 59.6629 89.2575 58.8719C90.5255 60.8739 92.2525 62.5969 94.3645 63.8769C93.5915 64.6499 92.8815 65.7229 92.3685 66.9979C91.1465 70.0359 91.5015 73.0399 93.1625 73.7079C94.8235 74.3759 97.1605 72.4559 98.3825 69.4179C98.8955 68.1429 99.1275 66.8769 99.1045 65.7839C101.514 66.3239 103.953 66.2769 106.254 65.7109C106.252 66.8059 106.497 68.0629 107.037 69.3299C108.321 72.3419 110.696 74.2149 112.343 73.5129C113.99 72.8109 114.284 69.8009 113.001 66.7879C112.461 65.5199 111.724 64.4739 110.933 63.7169C112.935 62.4489 114.658 60.7219 115.938 58.6099C116.71 59.3829 117.784 60.0929 119.059 60.6059C122.096 61.8279 125.101 61.4729 125.769 59.8119C126.437 58.1519 124.517 55.8149 121.479 54.5929ZM98.6615 60.0429C93.3665 57.9129 90.8025 51.8929 92.9325 46.5989C95.0635 41.3039 101.082 38.7399 106.376 40.8699C111.67 42.9999 114.235 49.0199 112.105 54.3139C109.975 59.6089 103.955 62.1739 98.6615 60.0429Z" fill="#0E4281"/>
<path d="M320.255 84.6851C320.255 85.8251 319.331 86.7501 318.19 86.7501C317.05 86.7501 316.126 85.8261 316.126 84.6851C316.126 83.5441 317.05 82.6211 318.19 82.6211C319.331 82.6211 320.255 83.5451 320.255 84.6851Z" fill="#EEF1FF"/>
<path d="M282.198 303.758C281.315 305.11 281.304 305.894 281.35 306.031C281.424 306.116 282.087 306.536 283.702 306.536H364.48C366.094 306.536 366.757 306.116 366.846 306.005C366.877 305.896 366.865 305.111 365.983 303.759L326.639 243.479C325.849 242.268 324.896 241.545 324.091 241.545C323.286 241.545 322.333 242.268 321.543 243.479L282.198 303.758Z" fill="#FFCF74"/>
<path d="M364.479 315.078H283.701C279.146 315.078 275.549 313.258 273.83 310.085C272.112 306.912 272.554 302.905 275.043 299.091L314.388 238.811C316.797 235.121 320.333 233.004 324.089 233.004C327.845 233.004 331.381 235.121 333.789 238.81L373.135 299.091C375.624 302.905 376.066 306.912 374.348 310.085C372.631 313.258 369.034 315.078 364.479 315.078ZM282.198 303.758C281.315 305.11 281.304 305.894 281.35 306.031C281.424 306.116 282.087 306.536 283.702 306.536H364.48C366.094 306.536 366.757 306.116 366.846 306.005C366.877 305.896 366.865 305.111 365.983 303.759L326.639 243.479C325.849 242.268 324.896 241.545 324.091 241.545C323.286 241.545 322.333 242.268 321.543 243.479L282.198 303.758Z" fill="#0E4281"/>
<path d="M321.615 298.732C320.964 298.08 320.638 297.274 320.638 296.315C320.638 295.356 320.964 294.551 321.615 293.899C322.268 293.247 323.073 292.92 324.032 292.92C324.991 292.92 325.806 293.247 326.479 293.899C327.148 294.551 327.486 295.357 327.486 296.315C327.486 297.274 327.149 298.08 326.479 298.732C325.806 299.384 324.992 299.71 324.032 299.71C323.073 299.71 322.268 299.384 321.615 298.732ZM319.602 258.623H328.579L326.911 287.338H321.27L319.602 258.623Z" fill="#0E4281"/>
<path d="M351.775 180.284H354.36L356.932 184.304V180.284H359.74V188.93H357.155L354.582 184.898V188.93H351.775V180.284ZM365.057 189.115C364.175 189.115 363.375 188.926 362.657 188.546C361.948 188.167 361.388 187.639 360.975 186.963C360.563 186.279 360.357 185.495 360.357 184.613C360.357 183.731 360.563 182.947 360.975 182.263C361.388 181.579 361.948 181.047 362.657 180.667C363.375 180.288 364.175 180.099 365.057 180.099C365.931 180.099 366.723 180.288 367.432 180.667C368.149 181.047 368.714 181.579 369.126 182.263C369.538 182.947 369.745 183.731 369.745 184.613C369.745 185.495 369.538 186.279 369.126 186.963C368.714 187.639 368.149 188.167 367.432 188.546C366.723 188.926 365.931 189.115 365.057 189.115ZM365.057 186.357C365.552 186.357 365.96 186.2 366.281 185.887C366.603 185.574 366.764 185.149 366.764 184.613C366.764 184.077 366.603 183.652 366.281 183.339C365.96 183.026 365.552 182.869 365.057 182.869C364.554 182.869 364.142 183.026 363.82 183.339C363.498 183.652 363.338 184.077 363.338 184.613C363.338 185.149 363.498 185.574 363.82 185.887C364.15 186.2 364.562 186.357 365.057 186.357ZM377.288 180.284H380.058L383.522 188.93H380.516L379.959 187.421H377.387L376.83 188.93H373.825L377.288 180.284ZM379.316 185.269L378.673 183.277L378.03 185.269H379.316ZM388.009 189.115C387.036 189.115 386.186 188.938 385.461 188.583C384.743 188.221 384.191 187.701 383.803 187.025C383.416 186.341 383.222 185.537 383.222 184.613C383.222 183.681 383.416 182.877 383.803 182.201C384.191 181.525 384.743 181.006 385.461 180.643C386.186 180.28 387.036 180.099 388.009 180.099C388.643 180.099 389.204 180.152 389.691 180.259C390.177 180.366 390.627 180.54 391.039 180.779V183.549C390.684 183.285 390.28 183.096 389.827 182.98C389.381 182.865 388.862 182.807 388.268 182.807C387.625 182.807 387.118 182.964 386.747 183.277C386.384 183.582 386.203 184.028 386.203 184.613C386.203 185.198 386.388 185.648 386.759 185.961C387.13 186.266 387.633 186.419 388.268 186.419C388.845 186.419 389.365 186.357 389.827 186.233C390.288 186.101 390.725 185.904 391.138 185.64V188.398C390.305 188.876 389.262 189.115 388.009 189.115ZM395.98 189.115C395.007 189.115 394.158 188.938 393.433 188.583C392.715 188.221 392.163 187.701 391.775 187.025C391.388 186.341 391.194 185.537 391.194 184.613C391.194 183.681 391.388 182.877 391.775 182.201C392.163 181.525 392.715 181.006 393.433 180.643C394.158 180.28 395.007 180.099 395.98 180.099C396.615 180.099 397.176 180.152 397.663 180.259C398.149 180.366 398.598 180.54 399.011 180.779V183.549C398.656 183.285 398.252 183.096 397.799 182.98C397.353 182.865 396.834 182.807 396.24 182.807C395.597 182.807 395.09 182.964 394.719 183.277C394.356 183.582 394.175 184.028 394.175 184.613C394.175 185.198 394.36 185.648 394.731 185.961C395.102 186.266 395.605 186.419 396.24 186.419C396.817 186.419 397.337 186.357 397.799 186.233C398.26 186.101 398.697 185.904 399.11 185.64V188.398C398.277 188.876 397.234 189.115 395.98 189.115ZM399.727 180.284H406.134V182.745H402.659V183.5H405.12V185.714H402.659V186.468H406.134V188.93H399.727V180.284ZM409.639 189.115C409.07 189.115 408.497 189.057 407.92 188.942C407.342 188.827 406.872 188.67 406.51 188.472V185.924C406.971 186.188 407.458 186.386 407.969 186.518C408.489 186.65 408.967 186.716 409.404 186.716C409.651 186.716 409.829 186.691 409.936 186.641C410.043 186.592 410.097 186.514 410.097 186.406C410.097 186.258 410.014 186.134 409.849 186.035C409.684 185.928 409.334 185.755 408.798 185.516C408.006 185.17 407.429 184.786 407.066 184.366C406.712 183.937 406.534 183.417 406.534 182.807C406.534 182.28 406.679 181.814 406.967 181.41C407.264 180.997 407.676 180.676 408.204 180.445C408.74 180.214 409.35 180.099 410.035 180.099C410.595 180.099 411.094 180.144 411.531 180.235C411.968 180.325 412.385 180.465 412.78 180.655V183.116C412.038 182.704 411.305 182.498 410.579 182.498C409.993 182.498 409.701 182.626 409.701 182.881C409.701 183.005 409.767 183.108 409.899 183.191C410.039 183.273 410.286 183.384 410.641 183.525L411.098 183.71C411.684 183.958 412.133 184.205 412.447 184.452C412.76 184.691 412.983 184.968 413.114 185.281C413.246 185.586 413.312 185.974 413.312 186.444C413.312 187.276 413.007 187.932 412.397 188.41C411.787 188.88 410.867 189.115 409.639 189.115ZM416.5 189.115C415.931 189.115 415.358 189.057 414.78 188.942C414.203 188.827 413.733 188.67 413.37 188.472V185.924C413.832 186.188 414.319 186.386 414.83 186.518C415.349 186.65 415.828 186.716 416.265 186.716C416.512 186.716 416.689 186.691 416.796 186.641C416.904 186.592 416.957 186.514 416.957 186.406C416.957 186.258 416.875 186.134 416.71 186.035C416.545 185.928 416.194 185.755 415.659 185.516C414.867 185.17 414.29 184.786 413.927 184.366C413.572 183.937 413.395 183.417 413.395 182.807C413.395 182.28 413.539 181.814 413.828 181.41C414.125 180.997 414.537 180.676 415.065 180.445C415.601 180.214 416.211 180.099 416.895 180.099C417.456 180.099 417.955 180.144 418.392 180.235C418.829 180.325 419.245 180.465 419.641 180.655V183.116C418.899 182.704 418.165 182.498 417.44 182.498C416.854 182.498 416.561 182.626 416.561 182.881C416.561 183.005 416.627 183.108 416.759 183.191C416.899 183.273 417.147 183.384 417.501 183.525L417.959 183.71C418.545 183.958 418.994 184.205 419.307 184.452C419.621 184.691 419.843 184.968 419.975 185.281C420.107 185.586 420.173 185.974 420.173 186.444C420.173 187.276 419.868 187.932 419.258 188.41C418.648 188.88 417.728 189.115 416.5 189.115Z" fill="white"/>
</svg>
