<svg width="228" height="173" viewBox="0 0 228 173" fill="none" xmlns="http://www.w3.org/2000/svg">
<mask id="path-1-outside-1_958_8" maskUnits="userSpaceOnUse" x="0.320068" y="0" width="228" height="173" fill="black">
<rect fill="white" x="0.320068" width="228" height="173"/>
<path d="M171.015 7.11748L208.518 7L115.241 161.128L21.0001 7.58739L92.7258 7.36271L114.871 42.9654L136.324 7.22614L171.015 7.11748Z"/>
<path d="M58.035 7.47125L115.05 100.04L171.015 7.11748L136.324 7.22614L114.871 42.9654L92.7258 7.36271L58.035 7.47125Z"/>
<path d="M7.52007 103C6.72007 103 6.32007 102.6 6.32007 101.8V92.776C6.32007 92.36 6.33607 92.024 6.36807 91.768C6.43207 91.512 6.62407 91.304 6.94407 91.144L19.5201 85.384V76.84L7.13607 69.16C6.59207 68.84 6.32007 68.36 6.32007 67.72V50.104C6.32007 49.592 6.35207 49.224 6.41607 49C6.48007 48.744 6.72007 48.472 7.13607 48.184L19.7601 39.64C20.0801 39.448 20.3681 39.304 20.6241 39.208C20.9121 39.08 21.2641 39.016 21.6801 39.016H34.6401C35.4401 39.016 35.8401 39.416 35.8401 40.216V48.376C35.8401 49.08 35.6001 49.56 35.1201 49.816L22.5441 55V63.88L35.1201 71.08C35.6001 71.304 35.8401 71.816 35.8401 72.616V93.496C35.8401 93.752 35.7921 94.024 35.6961 94.312C35.6321 94.6 35.4721 94.808 35.2161 94.936L20.1441 102.424C19.9521 102.52 19.7121 102.648 19.4241 102.808C19.1681 102.936 18.9121 103 18.6561 103H7.52007Z"/>
<path d="M57.9163 103C57.1803 103 56.5403 102.728 55.9963 102.184L46.3963 92.584C45.8523 92.072 45.5803 91.432 45.5803 90.664V62.536C45.5803 61.768 45.8523 61.128 46.3963 60.616L55.9963 51.016C56.5403 50.472 57.1803 50.2 57.9163 50.2H72.4603C73.2283 50.2 73.8683 50.472 74.3803 51.016L83.9803 60.616C84.5243 61.128 84.7963 61.768 84.7963 62.536V90.664C84.7963 91.432 84.5243 92.072 83.9803 92.584L74.3803 102.184C73.8683 102.728 73.2283 103 72.4603 103H57.9163ZM63.5323 91.816H66.8923C67.9163 91.816 68.6203 91.608 69.0043 91.192C69.3883 90.776 69.5803 90.04 69.5803 88.984V64.216C69.5803 63.16 69.3883 62.424 69.0043 62.008C68.6203 61.592 67.9163 61.384 66.8923 61.384H63.5323C62.4763 61.384 61.7563 61.592 61.3723 62.008C60.9883 62.424 60.7963 63.16 60.7963 64.216V88.984C60.7963 90.04 60.9883 90.776 61.3723 91.192C61.7563 91.608 62.4763 91.816 63.5323 91.816Z"/>
<path d="M111.579 103C110.939 103 110.299 102.792 109.659 102.376L101.835 97.096L96.4588 88.456C96.2348 88.04 96.0428 87.768 95.8828 87.64C95.7228 87.48 95.6428 87.16 95.6428 86.68V66.52C95.6428 66.04 95.7068 65.72 95.8348 65.56C95.9628 65.4 96.1708 65.112 96.4588 64.696L101.355 56.536L109.659 50.824C109.947 50.632 110.235 50.488 110.523 50.392C110.811 50.264 111.163 50.2 111.579 50.2H119.883C120.683 50.2 121.083 50.6 121.083 51.4V60.376C121.083 60.632 121.051 60.904 120.987 61.192C120.955 61.48 120.811 61.704 120.555 61.864L115.083 64.6L110.859 70.12V82.936L115.323 88.024L120.555 91.336C120.875 91.528 121.035 91.768 121.035 92.056C121.067 92.312 121.083 92.568 121.083 92.824V101.8C121.083 102.6 120.683 103 119.883 103H111.579Z"/>
<path d="M131.866 103C131.066 103 130.666 102.6 130.666 101.8V51.4C130.666 50.6 131.066 50.2 131.866 50.2H144.634C145.434 50.2 145.834 50.6 145.834 51.4V101.8C145.834 102.6 145.434 103 144.634 103H131.866ZM131.626 46.216C130.986 46.216 130.666 45.896 130.666 45.256V39.16C130.666 38.52 130.986 38.2 131.626 38.2H144.97C145.546 38.2 145.834 38.52 145.834 39.16V45.256C145.834 45.896 145.546 46.216 144.97 46.216H131.626Z"/>
<path d="M169.01 103C168.274 103 167.634 102.728 167.09 102.184L157.49 92.584C156.946 92.072 156.674 91.432 156.674 90.664V62.536C156.674 61.768 156.946 61.128 157.49 60.616L167.09 51.016C167.634 50.472 168.274 50.2 169.01 50.2H194.69C195.49 50.2 195.89 50.6 195.89 51.4V101.8C195.89 102.6 195.49 103 194.69 103H184.706C184.29 103 183.97 102.92 183.746 102.76C183.554 102.6 183.33 102.408 183.074 102.184L180.674 99.784L178.274 102.184C177.762 102.728 177.122 103 176.354 103H169.01ZM174.626 91.816H177.986C179.01 91.816 179.714 91.608 180.098 91.192C180.482 90.776 180.674 90.04 180.674 88.984V61.384H174.626C173.57 61.384 172.85 61.592 172.466 62.008C172.082 62.424 171.89 63.16 171.89 64.216V88.984C171.89 90.04 172.082 90.776 172.466 91.192C172.85 91.608 173.57 91.816 174.626 91.816Z"/>
<path d="M207.697 103C206.897 103 206.497 102.6 206.497 101.8V40.216C206.497 39.416 206.897 39.016 207.697 39.016H220.513C221.313 39.016 221.713 39.416 221.713 40.216V101.8C221.713 102.6 221.313 103 220.513 103H207.697Z"/>
</mask>
<path d="M171.015 7.11748L208.518 7L115.241 161.128L21.0001 7.58739L92.7258 7.36271L114.871 42.9654L136.324 7.22614L171.015 7.11748Z" fill="#0E4281"/>
<path d="M58.035 7.47125L115.05 100.04L171.015 7.11748L136.324 7.22614L114.871 42.9654L92.7258 7.36271L58.035 7.47125Z" fill="#052142"/>
<path d="M7.52007 103C6.72007 103 6.32007 102.6 6.32007 101.8V92.776C6.32007 92.36 6.33607 92.024 6.36807 91.768C6.43207 91.512 6.62407 91.304 6.94407 91.144L19.5201 85.384V76.84L7.13607 69.16C6.59207 68.84 6.32007 68.36 6.32007 67.72V50.104C6.32007 49.592 6.35207 49.224 6.41607 49C6.48007 48.744 6.72007 48.472 7.13607 48.184L19.7601 39.64C20.0801 39.448 20.3681 39.304 20.6241 39.208C20.9121 39.08 21.2641 39.016 21.6801 39.016H34.6401C35.4401 39.016 35.8401 39.416 35.8401 40.216V48.376C35.8401 49.08 35.6001 49.56 35.1201 49.816L22.5441 55V63.88L35.1201 71.08C35.6001 71.304 35.8401 71.816 35.8401 72.616V93.496C35.8401 93.752 35.7921 94.024 35.6961 94.312C35.6321 94.6 35.4721 94.808 35.2161 94.936L20.1441 102.424C19.9521 102.52 19.7121 102.648 19.4241 102.808C19.1681 102.936 18.9121 103 18.6561 103H7.52007Z" fill="white"/>
<path d="M57.9163 103C57.1803 103 56.5403 102.728 55.9963 102.184L46.3963 92.584C45.8523 92.072 45.5803 91.432 45.5803 90.664V62.536C45.5803 61.768 45.8523 61.128 46.3963 60.616L55.9963 51.016C56.5403 50.472 57.1803 50.2 57.9163 50.2H72.4603C73.2283 50.2 73.8683 50.472 74.3803 51.016L83.9803 60.616C84.5243 61.128 84.7963 61.768 84.7963 62.536V90.664C84.7963 91.432 84.5243 92.072 83.9803 92.584L74.3803 102.184C73.8683 102.728 73.2283 103 72.4603 103H57.9163ZM63.5323 91.816H66.8923C67.9163 91.816 68.6203 91.608 69.0043 91.192C69.3883 90.776 69.5803 90.04 69.5803 88.984V64.216C69.5803 63.16 69.3883 62.424 69.0043 62.008C68.6203 61.592 67.9163 61.384 66.8923 61.384H63.5323C62.4763 61.384 61.7563 61.592 61.3723 62.008C60.9883 62.424 60.7963 63.16 60.7963 64.216V88.984C60.7963 90.04 60.9883 90.776 61.3723 91.192C61.7563 91.608 62.4763 91.816 63.5323 91.816Z" fill="white"/>
<path d="M111.579 103C110.939 103 110.299 102.792 109.659 102.376L101.835 97.096L96.4588 88.456C96.2348 88.04 96.0428 87.768 95.8828 87.64C95.7228 87.48 95.6428 87.16 95.6428 86.68V66.52C95.6428 66.04 95.7068 65.72 95.8348 65.56C95.9628 65.4 96.1708 65.112 96.4588 64.696L101.355 56.536L109.659 50.824C109.947 50.632 110.235 50.488 110.523 50.392C110.811 50.264 111.163 50.2 111.579 50.2H119.883C120.683 50.2 121.083 50.6 121.083 51.4V60.376C121.083 60.632 121.051 60.904 120.987 61.192C120.955 61.48 120.811 61.704 120.555 61.864L115.083 64.6L110.859 70.12V82.936L115.323 88.024L120.555 91.336C120.875 91.528 121.035 91.768 121.035 92.056C121.067 92.312 121.083 92.568 121.083 92.824V101.8C121.083 102.6 120.683 103 119.883 103H111.579Z" fill="white"/>
<path d="M131.866 103C131.066 103 130.666 102.6 130.666 101.8V51.4C130.666 50.6 131.066 50.2 131.866 50.2H144.634C145.434 50.2 145.834 50.6 145.834 51.4V101.8C145.834 102.6 145.434 103 144.634 103H131.866ZM131.626 46.216C130.986 46.216 130.666 45.896 130.666 45.256V39.16C130.666 38.52 130.986 38.2 131.626 38.2H144.97C145.546 38.2 145.834 38.52 145.834 39.16V45.256C145.834 45.896 145.546 46.216 144.97 46.216H131.626Z" fill="white"/>
<path d="M169.01 103C168.274 103 167.634 102.728 167.09 102.184L157.49 92.584C156.946 92.072 156.674 91.432 156.674 90.664V62.536C156.674 61.768 156.946 61.128 157.49 60.616L167.09 51.016C167.634 50.472 168.274 50.2 169.01 50.2H194.69C195.49 50.2 195.89 50.6 195.89 51.4V101.8C195.89 102.6 195.49 103 194.69 103H184.706C184.29 103 183.97 102.92 183.746 102.76C183.554 102.6 183.33 102.408 183.074 102.184L180.674 99.784L178.274 102.184C177.762 102.728 177.122 103 176.354 103H169.01ZM174.626 91.816H177.986C179.01 91.816 179.714 91.608 180.098 91.192C180.482 90.776 180.674 90.04 180.674 88.984V61.384H174.626C173.57 61.384 172.85 61.592 172.466 62.008C172.082 62.424 171.89 63.16 171.89 64.216V88.984C171.89 90.04 172.082 90.776 172.466 91.192C172.85 91.608 173.57 91.816 174.626 91.816Z" fill="white"/>
<path d="M207.697 103C206.897 103 206.497 102.6 206.497 101.8V40.216C206.497 39.416 206.897 39.016 207.697 39.016H220.513C221.313 39.016 221.713 39.416 221.713 40.216V101.8C221.713 102.6 221.313 103 220.513 103H207.697Z" fill="white"/>
<path d="M114.871 42.9654L112.323 44.5499L114.916 48.7186L117.443 44.5094L114.871 42.9654ZM136.324 7.22614L136.314 4.22616L134.622 4.23146L133.752 5.68217L136.324 7.22614ZM90.1783 8.94722L112.323 44.5499L117.418 41.3809L95.2732 5.7782L90.1783 8.94722ZM117.443 44.5094L138.896 8.77012L133.752 5.68217L112.299 41.4214L117.443 44.5094ZM136.333 10.2261L171.024 10.1175L171.005 4.11749L136.314 4.22616L136.333 10.2261ZM171.015 7.11748L170.996 1.11751L167.618 1.12809L165.875 4.02191L171.015 7.11748ZM208.518 7L213.651 10.1066L219.183 0.966564L208.499 1.00003L208.518 7ZM115.241 161.128L110.127 164.267L115.277 172.657L120.374 164.235L115.241 161.128ZM21.0001 7.58739L20.9813 1.58742L10.2979 1.62088L15.8865 10.726L21.0001 7.58739ZM58.035 7.47125L58.0162 1.47128L47.3134 1.50477L52.9263 10.6178L58.035 7.47125ZM115.05 100.04L109.941 103.187L115.107 111.574L120.19 103.136L115.05 100.04ZM6.36807 91.768L0.547213 90.3128L0.45934 90.6643L0.414401 91.0238L6.36807 91.768ZM6.94407 91.144L4.44558 85.689L4.35243 85.7316L4.26079 85.7774L6.94407 91.144ZM19.5201 85.384L22.0186 90.839L25.5201 89.2353V85.384H19.5201ZM19.5201 76.84H25.5201V73.5008L22.6823 71.7409L19.5201 76.84ZM7.13607 69.16L10.2983 64.0609L10.2387 64.024L10.1782 63.9884L7.13607 69.16ZM6.41607 49L12.1852 50.6483L12.2127 50.5522L12.2369 50.4552L6.41607 49ZM7.13607 48.184L3.77307 43.2151L3.74684 43.2328L3.72079 43.2509L7.13607 48.184ZM19.7601 39.64L16.6731 34.495L16.5327 34.5793L16.3971 34.6711L19.7601 39.64ZM20.6241 39.208L22.7308 44.826L22.8979 44.7633L23.0609 44.6909L20.6241 39.208ZM35.1201 49.816L37.4067 55.3632L37.6814 55.2499L37.9436 55.1101L35.1201 49.816ZM22.5441 55L20.2574 49.4528L16.5441 50.9835V55H22.5441ZM22.5441 63.88H16.5441V67.3586L19.563 69.087L22.5441 63.88ZM35.1201 71.08L32.139 76.287L32.3561 76.4113L32.5828 76.5171L35.1201 71.08ZM35.6961 94.312L30.004 92.4146L29.9061 92.7083L29.8389 93.0104L35.6961 94.312ZM35.2161 94.936L37.8857 100.309L37.8925 100.306L37.8993 100.303L35.2161 94.936ZM20.1441 102.424L17.4745 97.0506L17.4676 97.054L17.4608 97.0574L20.1441 102.424ZM19.4241 102.808L22.1074 108.175L22.224 108.116L22.3379 108.053L19.4241 102.808ZM55.9963 102.184L60.239 97.9414L60.239 97.9414L55.9963 102.184ZM46.3963 92.584L50.639 88.3414L50.5747 88.2771L50.5085 88.2148L46.3963 92.584ZM46.3963 60.616L50.5085 64.9852L50.5747 64.9229L50.639 64.8586L46.3963 60.616ZM55.9963 51.016L51.7537 46.7734L51.7537 46.7734L55.9963 51.016ZM74.3803 51.016L70.0111 55.1282L70.0734 55.1944L70.1377 55.2586L74.3803 51.016ZM83.9803 60.616L79.7377 64.8586L79.802 64.9229L79.8681 64.9852L83.9803 60.616ZM83.9803 92.584L79.8681 88.2148L79.802 88.2771L79.7377 88.3414L83.9803 92.584ZM74.3803 102.184L70.1377 97.9414L70.0734 98.0056L70.0111 98.0718L74.3803 102.184ZM69.0043 91.192L64.5955 87.1223L64.5955 87.1223L69.0043 91.192ZM69.0043 62.008L64.5955 66.0777L64.5955 66.0777L69.0043 62.008ZM61.3723 62.008L65.7811 66.0777L65.7811 66.0777L61.3723 62.008ZM61.3723 91.192L65.7811 87.1223L65.7811 87.1223L61.3723 91.192ZM109.659 102.376L106.303 107.349L106.345 107.378L106.389 107.407L109.659 102.376ZM101.835 97.096L96.7405 100.266L97.417 101.353L98.4785 102.069L101.835 97.096ZM96.4588 88.456L91.176 91.3006L91.2651 91.4662L91.3645 91.6258L96.4588 88.456ZM95.8828 87.64L91.6402 91.8826L91.8752 92.1176L92.1346 92.3252L95.8828 87.64ZM96.4588 64.696L101.392 68.1113L101.503 67.9506L101.604 67.783L96.4588 64.696ZM101.355 56.536L97.9544 51.5926L96.8805 52.3313L96.2099 53.449L101.355 56.536ZM109.659 50.824L106.331 45.8317L106.294 45.8559L106.258 45.8806L109.659 50.824ZM110.523 50.392L112.42 56.0841L112.695 55.9925L112.96 55.8749L110.523 50.392ZM120.987 61.192L115.13 59.8904L115.059 60.2071L115.024 60.5294L120.987 61.192ZM120.555 61.864L123.238 67.2306L123.493 67.1031L123.735 66.952L120.555 61.864ZM115.083 64.6L112.4 59.2334L111.16 59.8532L110.318 60.9538L115.083 64.6ZM110.859 70.12L106.094 66.4738L104.859 68.0877V70.12H110.859ZM110.859 82.936H104.859V85.195L106.349 86.893L110.859 82.936ZM115.323 88.024L110.813 91.981L111.383 92.6311L112.114 93.0936L115.323 88.024ZM120.555 91.336L117.346 96.4056L117.406 96.444L117.468 96.481L120.555 91.336ZM121.035 92.056H115.035V92.4295L115.081 92.8002L121.035 92.056ZM167.09 102.184L171.333 97.9414L171.333 97.9414L167.09 102.184ZM157.49 92.584L161.733 88.3414L161.668 88.2771L161.602 88.2148L157.49 92.584ZM157.49 60.616L161.602 64.9852L161.668 64.9229L161.733 64.8586L157.49 60.616ZM167.09 51.016L162.847 46.7734L162.847 46.7734L167.09 51.016ZM183.746 102.76L179.905 107.369L180.077 107.512L180.259 107.642L183.746 102.76ZM183.074 102.184L178.831 106.427L178.973 106.568L179.123 106.699L183.074 102.184ZM180.674 99.784L184.917 95.5414L180.674 91.2987L176.431 95.5413L180.674 99.784ZM178.274 102.184L174.031 97.9414L173.967 98.0056L173.905 98.0718L178.274 102.184ZM180.098 91.192L175.689 87.1223L175.689 87.1223L180.098 91.192ZM180.674 61.384H186.674V55.384H180.674V61.384ZM172.466 62.008L176.875 66.0777L176.875 66.0777L172.466 62.008ZM172.466 91.192L176.875 87.1223L176.875 87.1223L172.466 91.192ZM171.033 13.1174L208.537 13L208.499 1.00003L170.996 1.11751L171.033 13.1174ZM203.385 3.89345L110.108 158.022L120.374 164.235L213.651 10.1066L203.385 3.89345ZM120.355 157.989L26.1137 4.44874L15.8865 10.726L110.127 164.267L120.355 157.989ZM21.0189 13.5874L92.7445 13.3627L92.707 1.36274L20.9813 1.58742L21.0189 13.5874ZM52.9263 10.6178L109.941 103.187L120.158 96.8935L63.1437 4.32469L52.9263 10.6178ZM120.19 103.136L176.154 10.213L165.875 4.02191L109.91 96.9445L120.19 103.136ZM92.707 1.36274L58.0162 1.47128L58.0538 13.4712L92.7445 13.3627L92.707 1.36274ZM7.52007 97C8.04493 97 9.54062 97.1353 10.8627 98.4574C12.1848 99.7794 12.3201 101.275 12.3201 101.8H0.320068C0.320068 103.125 0.655349 105.221 2.37744 106.943C4.09952 108.665 6.19521 109 7.52007 109V97ZM12.3201 101.8V92.776H0.320068V101.8H12.3201ZM12.3201 92.776C12.3201 92.642 12.3227 92.5513 12.3253 92.4974C12.328 92.4396 12.3295 92.4502 12.3217 92.5122L0.414401 91.0238C0.338734 91.6291 0.320068 92.2419 0.320068 92.776H12.3201ZM12.1889 93.2232C11.6913 95.2138 10.287 96.1807 9.62735 96.5106L4.26079 85.7774C2.96112 86.4273 1.17286 87.8102 0.547213 90.3128L12.1889 93.2232ZM9.44256 96.599L22.0186 90.839L17.0216 79.929L4.44558 85.689L9.44256 96.599ZM25.5201 85.384V76.84H13.5201V85.384H25.5201ZM22.6823 71.7409L10.2983 64.0609L3.97386 74.2591L16.3579 81.9391L22.6823 71.7409ZM10.1782 63.9884C10.6811 64.2842 11.29 64.8005 11.7442 65.6019C12.1961 66.3994 12.3201 67.1707 12.3201 67.72H0.320068C0.320068 70.4493 1.68576 72.915 4.09395 74.3316L10.1782 63.9884ZM12.3201 67.72V50.104H0.320068V67.72H12.3201ZM12.3201 50.104C12.3201 49.9607 12.325 49.9234 12.3215 49.9638C12.3195 49.987 12.3131 50.0545 12.2967 50.1554C12.2811 50.2514 12.2491 50.4249 12.1852 50.6483L0.646928 47.3517C0.335266 48.4425 0.320068 49.5369 0.320068 50.104H12.3201ZM12.2369 50.4552C11.9653 51.5418 11.4329 52.2453 11.1431 52.5737C10.844 52.9127 10.5983 53.0846 10.5513 53.1171L3.72079 43.2509C3.06338 43.706 1.21802 45.0536 0.595212 47.5448L12.2369 50.4552ZM10.4991 53.1529L23.1231 44.6089L16.3971 34.6711L3.77307 43.2151L10.4991 53.1529ZM22.8471 44.7849C22.8955 44.7559 22.9122 44.7481 22.8994 44.7545C22.8877 44.7604 22.8301 44.7887 22.7308 44.826L18.5173 33.59C17.8234 33.8503 17.2006 34.1786 16.6731 34.495L22.8471 44.7849ZM23.0609 44.6909C22.3782 44.9943 21.8478 45.016 21.6801 45.016V33.016C20.6803 33.016 19.446 33.1657 18.1873 33.7251L23.0609 44.6909ZM21.6801 45.016H34.6401V33.016H21.6801V45.016ZM34.6401 45.016C34.1152 45.016 32.6195 44.8807 31.2974 43.5586C29.9754 42.2366 29.8401 40.7409 29.8401 40.216H41.8401C41.8401 38.8911 41.5048 36.7954 39.7827 35.0734C38.0606 33.3513 35.9649 33.016 34.6401 33.016V45.016ZM29.8401 40.216V48.376H41.8401V40.216H29.8401ZM29.8401 48.376C29.8401 48.0758 29.8878 47.3921 30.2935 46.5807C30.7381 45.6916 31.4548 44.9708 32.2965 44.5219L37.9436 55.1101C40.9697 53.4962 41.8401 50.5345 41.8401 48.376H29.8401ZM32.8334 44.2688L20.2574 49.4528L24.8307 60.5472L37.4067 55.3632L32.8334 44.2688ZM16.5441 55V63.88H28.5441V55H16.5441ZM19.563 69.087L32.139 76.287L38.1012 65.873L25.5252 58.673L19.563 69.087ZM32.5828 76.5171C31.459 75.9927 30.6606 75.1028 30.2273 74.1786C29.8521 73.3782 29.8401 72.7559 29.8401 72.616H41.8401C41.8401 70.8259 41.2416 67.3155 37.6574 65.6429L32.5828 76.5171ZM29.8401 72.616V93.496H41.8401V72.616H29.8401ZM29.8401 93.496C29.8401 93 29.9329 92.6278 30.004 92.4146L41.3882 96.2094C41.6512 95.4202 41.8401 94.504 41.8401 93.496H29.8401ZM29.8389 93.0104C29.9735 92.4047 30.2543 91.6992 30.7723 91.0257C31.294 90.3476 31.9245 89.8736 32.5328 89.5694L37.8993 100.303C39.8281 99.3382 41.1112 97.6025 41.5532 95.6136L29.8389 93.0104ZM32.5465 89.5626L17.4745 97.0506L22.8137 107.797L37.8857 100.309L32.5465 89.5626ZM17.4608 97.0574C17.1618 97.207 16.8388 97.3805 16.5102 97.5631L22.3379 108.053C22.5853 107.915 22.7424 107.833 22.8273 107.791L17.4608 97.0574ZM16.7408 97.4414C17.2185 97.2026 17.8755 97 18.6561 97V109C19.9487 109 21.1176 108.669 22.1074 108.175L16.7408 97.4414ZM18.6561 97H7.52007V109H18.6561V97ZM57.9163 97C58.3069 97 58.7662 97.0764 59.2312 97.274C59.6909 97.4694 60.0248 97.7272 60.239 97.9414L51.7537 106.427C53.3661 108.039 55.5105 109 57.9163 109V97ZM60.239 97.9414L50.639 88.3414L42.1537 96.8266L51.7537 106.427L60.239 97.9414ZM50.5085 88.2148C50.7958 88.4852 51.0938 88.8732 51.3063 89.3731C51.5172 89.8694 51.5803 90.3261 51.5803 90.664H39.5803C39.5803 93.034 40.4978 95.2719 42.2841 96.9532L50.5085 88.2148ZM51.5803 90.664V62.536H39.5803V90.664H51.5803ZM51.5803 62.536C51.5803 62.8739 51.5172 63.3306 51.3063 63.8268C51.0938 64.3268 50.7958 64.7148 50.5085 64.9852L42.2841 56.2468C40.4978 57.9281 39.5803 60.166 39.5803 62.536H51.5803ZM50.639 64.8586L60.239 55.2586L51.7537 46.7734L42.1537 56.3734L50.639 64.8586ZM60.239 55.2586C60.0248 55.4728 59.6909 55.7306 59.2312 55.926C58.7662 56.1236 58.3069 56.2 57.9163 56.2V44.2C55.5105 44.2 53.3661 45.1609 51.7537 46.7734L60.239 55.2586ZM57.9163 56.2H72.4603V44.2H57.9163V56.2ZM72.4603 56.2C72.1224 56.2 71.6657 56.1369 71.1695 55.926C70.6695 55.7135 70.2815 55.4155 70.0111 55.1282L78.7495 46.9038C77.0682 45.1174 74.8303 44.2 72.4603 44.2V56.2ZM70.1377 55.2586L79.7377 64.8586L88.223 56.3734L78.623 46.7734L70.1377 55.2586ZM79.8681 64.9852C79.5808 64.7148 79.2828 64.3268 79.0703 63.8268C78.8594 63.3306 78.7963 62.8739 78.7963 62.536H90.7963C90.7963 60.1661 89.8789 57.9281 88.0925 56.2468L79.8681 64.9852ZM78.7963 62.536V90.664H90.7963V62.536H78.7963ZM78.7963 90.664C78.7963 90.3261 78.8594 89.8694 79.0703 89.3732C79.2828 88.8732 79.5808 88.4852 79.8681 88.2148L88.0925 96.9532C89.8789 95.2719 90.7963 93.0339 90.7963 90.664H78.7963ZM79.7377 88.3414L70.1377 97.9414L78.623 106.427L88.223 96.8266L79.7377 88.3414ZM70.0111 98.0718C70.2815 97.7845 70.6695 97.4865 71.1695 97.274C71.6657 97.0631 72.1224 97 72.4603 97V109C74.8303 109 77.0682 108.083 78.7495 106.296L70.0111 98.0718ZM72.4603 97H57.9163V109H72.4603V97ZM63.5323 97.816H66.8923V85.816H63.5323V97.816ZM66.8923 97.816C68.3419 97.816 71.2586 97.5957 73.4131 95.2617L64.5955 87.1223C65.3253 86.3317 66.1034 86.0196 66.4882 85.9059C66.8578 85.7967 67.0374 85.816 66.8923 85.816V97.816ZM73.4131 95.2617C75.4006 93.1086 75.5803 90.3896 75.5803 88.984H63.5803C63.5803 89.1828 63.5586 89.0895 63.6306 88.8135C63.7015 88.5418 63.9292 87.8442 64.5955 87.1223L73.4131 95.2617ZM75.5803 88.984V64.216H63.5803V88.984H75.5803ZM75.5803 64.216C75.5803 62.8104 75.4006 60.0914 73.4131 57.9383L64.5955 66.0777C63.9292 65.3558 63.7015 64.6582 63.6306 64.3865C63.5586 64.1105 63.5803 64.0172 63.5803 64.216H75.5803ZM73.4131 57.9383C71.2586 55.6043 68.3419 55.384 66.8923 55.384V67.384C67.0374 67.384 66.8578 67.4033 66.4882 67.2941C66.1034 67.1804 65.3253 66.8683 64.5955 66.0777L73.4131 57.9383ZM66.8923 55.384H63.5323V67.384H66.8923V55.384ZM63.5323 55.384C62.1186 55.384 59.1431 55.5771 56.9635 57.9383L65.7811 66.0777C65.0268 66.8949 64.2261 67.2001 63.8656 67.3043C63.5136 67.406 63.3571 67.384 63.5323 67.384V55.384ZM56.9635 57.9383C54.976 60.0914 54.7963 62.8104 54.7963 64.216H66.7963C66.7963 64.0172 66.818 64.1105 66.746 64.3865C66.6752 64.6582 66.4475 65.3558 65.7811 66.0777L56.9635 57.9383ZM54.7963 64.216V88.984H66.7963V64.216H54.7963ZM54.7963 88.984C54.7963 90.3896 54.976 93.1086 56.9635 95.2617L65.7811 87.1223C66.4475 87.8442 66.6752 88.5418 66.746 88.8135C66.818 89.0895 66.7963 89.1828 66.7963 88.984H54.7963ZM56.9635 95.2617C59.1431 97.6229 62.1186 97.816 63.5323 97.816V85.816C63.3571 85.816 63.5136 85.794 63.8656 85.8957C64.2261 85.9999 65.0268 86.3051 65.7811 87.1223L56.9635 95.2617ZM111.579 97C112.307 97 112.786 97.2523 112.929 97.3453L106.389 107.407C107.812 108.332 109.57 109 111.579 109V97ZM113.015 97.4026L105.191 92.1226L98.4785 102.069L106.303 107.349L113.015 97.4026ZM106.929 93.9262L101.553 85.2862L91.3645 91.6258L96.7405 100.266L106.929 93.9262ZM101.742 85.6114C101.507 85.1756 100.832 83.9155 99.631 82.9548L92.1346 92.3252C91.8352 92.0857 91.6266 91.8655 91.5045 91.7267C91.3774 91.5823 91.2914 91.4659 91.245 91.4001C91.1575 91.2762 91.1353 91.225 91.176 91.3006L101.742 85.6114ZM100.125 83.3974C101.089 84.3606 101.413 85.3833 101.524 85.8248C101.643 86.3026 101.643 86.6304 101.643 86.68H89.6428C89.6428 87.2096 89.6825 87.9374 89.882 88.7352C90.0723 89.4967 90.517 90.7594 91.6402 91.8826L100.125 83.3974ZM101.643 86.68V66.52H89.6428V86.68H101.643ZM101.643 66.52C101.643 66.5298 101.643 66.5821 101.636 66.6684C101.629 66.752 101.613 66.9008 101.574 67.0966C101.536 67.2872 101.464 67.5832 101.322 67.9383C101.181 68.2896 100.938 68.7859 100.52 69.3082L91.1496 61.8118C90.2333 62.9572 89.9275 64.1423 89.8073 64.7434C89.6709 65.4253 89.6428 66.051 89.6428 66.52H101.643ZM100.52 69.3082C100.792 68.9679 101.106 68.5242 101.392 68.1113L91.5257 61.2807C91.3957 61.4684 91.2959 61.6097 91.2227 61.711C91.1413 61.8238 91.1235 61.8445 91.1496 61.8118L100.52 69.3082ZM101.604 67.783L106.5 59.623L96.2099 53.449L91.3139 61.609L101.604 67.783ZM104.755 61.4794L113.059 55.7674L106.258 45.8806L97.9544 51.5926L104.755 61.4794ZM112.987 55.8163C112.892 55.8795 112.703 55.9898 112.42 56.0841L108.625 44.6999C107.767 44.9862 107.001 45.3844 106.331 45.8317L112.987 55.8163ZM112.96 55.8749C112.277 56.1783 111.747 56.2 111.579 56.2V44.2C110.579 44.2 109.345 44.3497 108.086 44.9091L112.96 55.8749ZM111.579 56.2H119.883V44.2H111.579V56.2ZM119.883 56.2C119.358 56.2 117.862 56.0647 116.54 54.7426C115.218 53.4205 115.083 51.9249 115.083 51.4H127.083C127.083 50.0751 126.748 47.9794 125.025 46.2574C123.303 44.5353 121.208 44.2 119.883 44.2V56.2ZM115.083 51.4V60.376H127.083V51.4H115.083ZM115.083 60.376C115.083 60.1339 115.113 59.9665 115.13 59.8904L126.844 62.4936C126.989 61.8415 127.083 61.1301 127.083 60.376H115.083ZM115.024 60.5294C115.101 59.8362 115.336 59.0649 115.808 58.3315C116.275 57.605 116.853 57.1023 117.375 56.776L123.735 66.952C125.471 65.867 126.706 64.0522 126.95 61.8546L115.024 60.5294ZM117.872 56.4974L112.4 59.2334L117.766 69.9666L123.238 67.2306L117.872 56.4974ZM110.318 60.9538L106.094 66.4738L115.624 73.7662L119.848 68.2462L110.318 60.9538ZM104.859 70.12V82.936H116.859V70.12H104.859ZM106.349 86.893L110.813 91.981L119.833 84.067L115.369 78.979L106.349 86.893ZM112.114 93.0936L117.346 96.4056L123.764 86.2664L118.532 82.9544L112.114 93.0936ZM117.468 96.481C117.081 96.2491 116.458 95.7912 115.923 94.9882C115.347 94.1242 115.035 93.0985 115.035 92.056H127.035C127.035 89.0346 125.159 87.1011 123.642 86.191L117.468 96.481ZM115.081 92.8002C115.083 92.8112 115.083 92.8187 115.083 92.824H127.083C127.083 92.3173 127.051 91.8128 126.988 91.3118L115.081 92.8002ZM115.083 92.824V101.8H127.083V92.824H115.083ZM115.083 101.8C115.083 101.275 115.218 99.7794 116.54 98.4574C117.862 97.1353 119.358 97 119.883 97V109C121.208 109 123.303 108.665 125.025 106.943C126.748 105.221 127.083 103.125 127.083 101.8H115.083ZM119.883 97H111.579V109H119.883V97ZM131.866 97C132.391 97 133.887 97.1353 135.209 98.4574C136.531 99.7794 136.666 101.275 136.666 101.8H124.666C124.666 103.125 125.002 105.221 126.724 106.943C128.446 108.665 130.541 109 131.866 109V97ZM136.666 101.8V51.4H124.666V101.8H136.666ZM136.666 51.4C136.666 51.9249 136.531 53.4205 135.209 54.7426C133.887 56.0647 132.391 56.2 131.866 56.2V44.2C130.541 44.2 128.446 44.5353 126.724 46.2574C125.002 47.9794 124.666 50.0751 124.666 51.4H136.666ZM131.866 56.2H144.634V44.2H131.866V56.2ZM144.634 56.2C144.109 56.2 142.614 56.0647 141.292 54.7426C139.97 53.4205 139.834 51.9249 139.834 51.4H151.834C151.834 50.0751 151.499 47.9794 149.777 46.2574C148.055 44.5353 145.959 44.2 144.634 44.2V56.2ZM139.834 51.4V101.8H151.834V51.4H139.834ZM139.834 101.8C139.834 101.275 139.97 99.7794 141.292 98.4574C142.614 97.1353 144.109 97 144.634 97V109C145.959 109 148.055 108.665 149.777 106.943C151.499 105.221 151.834 103.125 151.834 101.8H139.834ZM144.634 97H131.866V109H144.634V97ZM131.626 40.216C132.231 40.216 133.787 40.3713 135.149 41.7334C136.511 43.0954 136.666 44.6511 136.666 45.256H124.666C124.666 46.5009 124.982 48.5366 126.664 50.2186C128.346 51.9007 130.381 52.216 131.626 52.216V40.216ZM136.666 45.256V39.16H124.666V45.256H136.666ZM136.666 39.16C136.666 39.7649 136.511 41.3206 135.149 42.6826C133.787 44.0447 132.231 44.2 131.626 44.2V32.2C130.381 32.2 128.346 32.5153 126.664 34.1974C124.982 35.8794 124.666 37.9151 124.666 39.16H136.666ZM131.626 44.2H144.97V32.2H131.626V44.2ZM144.97 44.2C144.161 44.2 142.502 43.9461 141.159 42.4538C139.924 41.0817 139.834 39.6179 139.834 39.16H151.834C151.834 38.0621 151.601 36.1183 150.078 34.4262C148.447 32.6139 146.356 32.2 144.97 32.2V44.2ZM139.834 39.16V45.256H151.834V39.16H139.834ZM139.834 45.256C139.834 44.7981 139.924 43.3343 141.159 41.9622C142.502 40.4699 144.161 40.216 144.97 40.216V52.216C146.356 52.216 148.447 51.802 150.078 49.9898C151.601 48.2977 151.834 46.3539 151.834 45.256H139.834ZM144.97 40.216H131.626V52.216H144.97V40.216ZM169.01 97C169.401 97 169.86 97.0764 170.325 97.274C170.785 97.4694 171.119 97.7272 171.333 97.9414L162.847 106.427C164.46 108.039 166.604 109 169.01 109V97ZM171.333 97.9414L161.733 88.3414L153.247 96.8266L162.847 106.427L171.333 97.9414ZM161.602 88.2148C161.89 88.4852 162.188 88.8732 162.4 89.3732C162.611 89.8694 162.674 90.3261 162.674 90.664H150.674C150.674 93.0339 151.591 95.2719 153.378 96.9532L161.602 88.2148ZM162.674 90.664V62.536H150.674V90.664H162.674ZM162.674 62.536C162.674 62.8739 162.611 63.3306 162.4 63.8268C162.188 64.3268 161.89 64.7148 161.602 64.9852L153.378 56.2468C151.591 57.9281 150.674 60.1661 150.674 62.536H162.674ZM161.733 64.8586L171.333 55.2586L162.847 46.7734L153.247 56.3734L161.733 64.8586ZM171.333 55.2586C171.119 55.4728 170.785 55.7306 170.325 55.926C169.86 56.1236 169.401 56.2 169.01 56.2V44.2C166.604 44.2 164.46 45.1609 162.847 46.7734L171.333 55.2586ZM169.01 56.2H194.69V44.2H169.01V56.2ZM194.69 56.2C194.165 56.2 192.67 56.0647 191.347 54.7427C190.025 53.4206 189.89 51.9249 189.89 51.4H201.89C201.89 50.0751 201.555 47.9794 199.833 46.2573C198.111 44.5353 196.015 44.2 194.69 44.2V56.2ZM189.89 51.4V101.8H201.89V51.4H189.89ZM189.89 101.8C189.89 101.275 190.025 99.7794 191.347 98.4573C192.67 97.1353 194.165 97 194.69 97V109C196.015 109 198.111 108.665 199.833 106.943C201.555 105.221 201.89 103.125 201.89 101.8H189.89ZM194.69 97H184.706V109H194.69V97ZM184.706 97C184.938 97 186.04 97.0252 187.234 97.8776L180.259 107.642C181.9 108.815 183.642 109 184.706 109V97ZM187.587 98.1507C187.443 98.0303 187.257 97.8713 187.025 97.6685L179.123 106.699C179.403 106.945 179.665 107.17 179.905 107.369L187.587 98.1507ZM187.317 97.9414L184.917 95.5414L176.431 104.027L178.831 106.427L187.317 97.9414ZM176.431 95.5413L174.031 97.9414L182.517 106.427L184.917 104.027L176.431 95.5413ZM173.905 98.0718C174.175 97.7845 174.563 97.4865 175.063 97.274C175.559 97.0631 176.016 97 176.354 97V109C178.724 109 180.962 108.083 182.643 106.296L173.905 98.0718ZM176.354 97H169.01V109H176.354V97ZM174.626 97.816H177.986V85.816H174.626V97.816ZM177.986 97.816C179.436 97.816 182.352 97.5957 184.507 95.2617L175.689 87.1223C176.419 86.3317 177.197 86.0196 177.582 85.9059C177.952 85.7967 178.131 85.816 177.986 85.816V97.816ZM184.507 95.2617C186.494 93.1086 186.674 90.3896 186.674 88.984H174.674C174.674 89.1828 174.652 89.0895 174.724 88.8135C174.795 88.5418 175.023 87.8442 175.689 87.1223L184.507 95.2617ZM186.674 88.984V61.384H174.674V88.984H186.674ZM180.674 55.384H174.626V67.384H180.674V55.384ZM174.626 55.384C173.212 55.384 170.237 55.5771 168.057 57.9383L176.875 66.0777C176.121 66.8949 175.32 67.2001 174.959 67.3043C174.607 67.406 174.451 67.384 174.626 67.384V55.384ZM168.057 57.9383C166.07 60.0914 165.89 62.8105 165.89 64.216H177.89C177.89 64.0172 177.912 64.1105 177.84 64.3865C177.769 64.6582 177.541 65.3558 176.875 66.0777L168.057 57.9383ZM165.89 64.216V88.984H177.89V64.216H165.89ZM165.89 88.984C165.89 90.3895 166.07 93.1086 168.057 95.2617L176.875 87.1223C177.541 87.8442 177.769 88.5418 177.84 88.8135C177.912 89.0895 177.89 89.1828 177.89 88.984H165.89ZM168.057 95.2617C170.237 97.6229 173.212 97.816 174.626 97.816V85.816C174.451 85.816 174.607 85.794 174.959 85.8957C175.32 85.9999 176.121 86.3051 176.875 87.1223L168.057 95.2617ZM207.697 97C208.221 97 209.717 97.1353 211.039 98.4574C212.361 99.7794 212.497 101.275 212.497 101.8H200.497C200.497 103.125 200.832 105.221 202.554 106.943C204.276 108.665 206.372 109 207.697 109V97ZM212.497 101.8V40.216H200.497V101.8H212.497ZM212.497 40.216C212.497 40.7409 212.361 42.2365 211.039 43.5586C209.717 44.8807 208.221 45.016 207.697 45.016V33.016C206.372 33.016 204.276 33.3513 202.554 35.0734C200.832 36.7954 200.497 38.8911 200.497 40.216H212.497ZM207.697 45.016H220.513V33.016H207.697V45.016ZM220.513 45.016C219.988 45.016 218.492 44.8807 217.17 43.5586C215.848 42.2365 215.713 40.7409 215.713 40.216H227.713C227.713 38.8911 227.377 36.7954 225.655 35.0734C223.933 33.3513 221.837 33.016 220.513 33.016V45.016ZM215.713 40.216V101.8H227.713V40.216H215.713ZM215.713 101.8C215.713 101.275 215.848 99.7794 217.17 98.4574C218.492 97.1353 219.988 97 220.513 97V109C221.837 109 223.933 108.665 225.655 106.943C227.377 105.221 227.713 103.125 227.713 101.8H215.713ZM220.513 97H207.697V109H220.513V97Z" fill="#052142" mask="url(#path-1-outside-1_958_8)"/>
</svg>
